<svg xmlns="http://www.w3.org/2000/svg" id="Layer_1" data-name="Layer 1" viewBox="0 0 80.04 16.65"><defs><style>      .cls-1 {        fill: #0035b9;      }    </style></defs><g><path class="cls-1" d="M51.97,4.93l-.65,4.95h1.3l-.65-4.95ZM51.97,4.93l-.65,4.95h1.3l-.65-4.95ZM51.97,4.93l-.65,4.95h1.3l-.65-4.95Z"></path><path class="cls-1" d="M67.55,3.9h-.6v3.42h.4c.23,0,.4-.02.48-.05.32-.13.47-.38.47-.77v-1.78c0-.55-.25-.82-.75-.82ZM67.55,3.9h-.6v3.42h.4c.23,0,.4-.02.48-.05.32-.13.47-.38.47-.77v-1.78c0-.55-.25-.82-.75-.82ZM67.55,3.9h-.6v3.42h.4c.23,0,.4-.02.48-.05.32-.13.47-.38.47-.77v-1.78c0-.55-.25-.82-.75-.82Z"></path><path class="cls-1" d="M76.82,2.56c-1.44-1.44-3.42-2.34-5.6-2.39H8.97C4.46.17.82,3.82.82,8.32c0,2.25.91,4.29,2.38,5.77,1.48,1.48,3.52,2.39,5.77,2.39h62.08c4.51,0,8.16-3.65,8.16-8.15,0-2.25-.91-4.29-2.39-5.77ZM8.73,14.52c-3.42,0-6.19-2.77-6.19-6.19s2.77-6.19,6.19-6.19,6.19,2.77,6.19,6.19-2.77,6.19-6.19,6.19ZM25.79,14.29h-1.66v-6.69l-1.47,6.69h-1.16l-1.5-6.69v6.69h-1.68V2.37h1.73l2.01,8.17,2-8.17h1.73v11.92ZM30.84,9.14l-.04.15v5h-1.71v-5l-.07-.15-2.09-6.77h1.82l1.19,4.66,1.16-4.66h1.82l-2.08,6.77ZM42.33,6.29h-1.72v-1.61c0-.52-.25-.79-.75-.79h-.02c-.48,0-.73.27-.73.79v1.09c0,.54.53,1.19,1.62,1.95,1.07.77,1.6,1.69,1.6,2.75v1.51c0,1.67-.82,2.5-2.47,2.5s-2.47-.83-2.47-2.5v-1.6h1.72v1.6c0,.53.25.79.75.79s.75-.26.75-.79v-1.37c0-.57-.54-1.23-1.62-2-1.07-.77-1.6-1.7-1.6-2.81v-1.12c0-1.66.81-2.49,2.47-2.49s2.47.83,2.47,2.49v1.61ZM48.37,4.07h-1.63v10.22h-1.71V4.07h-1.61v-1.7h4.95v1.7ZM53.19,14.29l-.33-2.53h-1.78l-.33,2.53h-1.73l.57-4.22,1.21-7.7h2.35l1.21,7.69.56,4.23h-1.73ZM63.53,14.29h-1.65v-6.69l-1.47,6.69h-1.17l-.53-2.36-.97-4.33v6.69h-1.67V2.37h1.72l.92,3.74,1.1,4.43,2-8.17h1.72v11.92ZM70.02,6.67c0,1.24-.55,2.04-1.64,2.39-.26.08-.65.11-1.15.11h-.28v5.12h-1.72V2.37h2.5c1.54.01,2.29.85,2.29,2.52v1.78Z"></path></g><g><path class="cls-1" d="M9.2,11.7l-.29.29c-.1.1-.23.15-.36.15s-.26-.06-.36-.15l-3.13-3.13c-.1-.1-.15-.22-.15-.36s.06-.26.15-.36l.29-.29,3.84,3.84Z"></path><path class="cls-1" d="M10.5,11.29l-.23.23c-.07.07-.17.11-.27.11-.1,0-.19-.04-.27-.11l-4.19-4.19c-.14-.15-.14-.39,0-.54l.23-.23c.28-.28.71-.35,1.06-.18l1.68.81s.07.04.1.07l1.17,1.17s.06.07.07.1l.81,1.68c.18.36.1.78-.18,1.06Z"></path><path class="cls-1" d="M12.53,6.35c-.11.55-.53,1-1.07,1.16-.1.03-.21.05-.31.06-.34.03-.68.18-.97.44l-.05.05-1.12-1.12.06-.06c.24-.28.39-.61.42-.96,0-.1.02-.21.06-.3.16-.54.61-.96,1.16-1.07.51-.1,1.03.06,1.4.41.36.37.52.89.42,1.4Z"></path></g></svg>